<?xml version="1.0" standalone="no"?>
<!DOCTYPE svg PUBLIC "-//W3C//DTD SVG 20010904//EN"
 "http://www.w3.org/TR/2001/REC-SVG-20010904/DTD/svg10.dtd">
<svg version="1.0" xmlns="http://www.w3.org/2000/svg"
 width="128.000000pt" height="128.000000pt" viewBox="0 0 128.000000 128.000000"
 preserveAspectRatio="xMidYMid meet">
<metadata>
Created by potrace 1.11, written by Peter Selinger 2001-2013
</metadata>
<g transform="translate(0.000000,128.000000) scale(0.100000,-0.100000)"
fill="#000000" stroke="none">
<path d="M390 1273 c-26 -9 -61 -46 -80 -84 -11 -20 -31 -44 -47 -54 -88 -58
-195 -209 -228 -320 -32 -110 -36 -231 -10 -330 27 -102 28 -105 17 -105 -12
0 -32 -53 -32 -85 0 -12 10 -38 23 -56 22 -33 23 -35 5 -53 -27 -28 -33 -82
-15 -121 30 -62 46 -65 422 -65 286 0 339 2 351 15 9 8 20 15 25 15 5 0 9 -7
9 -15 0 -13 31 -15 220 -15 l220 0 0 51 c0 45 -4 55 -34 85 -31 31 -39 34 -95
34 -66 0 -73 6 -40 36 27 24 89 117 111 166 49 106 66 268 41 385 -31 150
-138 309 -262 391 -122 81 -194 103 -351 107 -69 2 -141 8 -160 14 -37 12 -66
13 -90 4z"/>
</g>
</svg>
